<mxfile host="app.diagrams.net" agent="Mozilla/5.0 (Windows NT 10.0; Win64; x64) AppleWebKit/537.36 (KHTML, like Gecko) Chrome/134.0.0.0 Safari/537.36" version="26.1.3">
  <diagram name="Page-1" id="glISj2cDydRRrinYozzp">
    <mxGraphModel dx="2085" dy="709" grid="1" gridSize="10" guides="1" tooltips="1" connect="1" arrows="1" fold="1" page="1" pageScale="1" pageWidth="850" pageHeight="1100" math="0" shadow="0">
      <root>
        <mxCell id="0" />
        <mxCell id="1" parent="0" />
        <mxCell id="6ZXauJgdPOwnqR5NRr7Z-35" value="" style="group" vertex="1" connectable="0" parent="1">
          <mxGeometry x="-805" y="80" width="760" height="180" as="geometry" />
        </mxCell>
        <mxCell id="6ZXauJgdPOwnqR5NRr7Z-5" value="&lt;b&gt;Common Request Header&lt;/b&gt;" style="shape=ext;double=1;rounded=0;whiteSpace=wrap;html=1;fillColor=#fff2cc;strokeColor=#d6b656;" vertex="1" parent="6ZXauJgdPOwnqR5NRr7Z-35">
          <mxGeometry x="330" width="120" height="40" as="geometry" />
        </mxCell>
        <mxCell id="6ZXauJgdPOwnqR5NRr7Z-23" value="" style="group" vertex="1" connectable="0" parent="6ZXauJgdPOwnqR5NRr7Z-35">
          <mxGeometry y="90" width="760" height="90" as="geometry" />
        </mxCell>
        <mxCell id="6ZXauJgdPOwnqR5NRr7Z-2" value="Host" style="whiteSpace=wrap;html=1;fillColor=#e1d5e7;strokeColor=#9673a6;" vertex="1" parent="6ZXauJgdPOwnqR5NRr7Z-23">
          <mxGeometry y="50" width="120" height="40" as="geometry" />
        </mxCell>
        <mxCell id="6ZXauJgdPOwnqR5NRr7Z-17" style="edgeStyle=orthogonalEdgeStyle;rounded=0;orthogonalLoop=1;jettySize=auto;html=1;" edge="1" parent="6ZXauJgdPOwnqR5NRr7Z-23" target="6ZXauJgdPOwnqR5NRr7Z-9">
          <mxGeometry relative="1" as="geometry">
            <mxPoint x="390" as="sourcePoint" />
          </mxGeometry>
        </mxCell>
        <mxCell id="6ZXauJgdPOwnqR5NRr7Z-7" value="User-Agent" style="whiteSpace=wrap;html=1;fillColor=#e1d5e7;strokeColor=#9673a6;" vertex="1" parent="6ZXauJgdPOwnqR5NRr7Z-23">
          <mxGeometry x="160" y="50" width="120" height="40" as="geometry" />
        </mxCell>
        <mxCell id="6ZXauJgdPOwnqR5NRr7Z-8" value="Content-Length" style="whiteSpace=wrap;html=1;fillColor=#e1d5e7;strokeColor=#9673a6;" vertex="1" parent="6ZXauJgdPOwnqR5NRr7Z-23">
          <mxGeometry x="320" y="50" width="120" height="40" as="geometry" />
        </mxCell>
        <mxCell id="6ZXauJgdPOwnqR5NRr7Z-9" value="Accept-Encoding" style="whiteSpace=wrap;html=1;fillColor=#e1d5e7;strokeColor=#9673a6;" vertex="1" parent="6ZXauJgdPOwnqR5NRr7Z-23">
          <mxGeometry x="480" y="50" width="120" height="40" as="geometry" />
        </mxCell>
        <mxCell id="6ZXauJgdPOwnqR5NRr7Z-10" value="Cookie" style="whiteSpace=wrap;html=1;fillColor=#e1d5e7;strokeColor=#9673a6;" vertex="1" parent="6ZXauJgdPOwnqR5NRr7Z-23">
          <mxGeometry x="640" y="50" width="120" height="40" as="geometry" />
        </mxCell>
        <mxCell id="6ZXauJgdPOwnqR5NRr7Z-18" style="edgeStyle=orthogonalEdgeStyle;rounded=0;orthogonalLoop=1;jettySize=auto;html=1;" edge="1" parent="6ZXauJgdPOwnqR5NRr7Z-23" source="6ZXauJgdPOwnqR5NRr7Z-5">
          <mxGeometry relative="1" as="geometry">
            <mxPoint x="390" y="50" as="targetPoint" />
          </mxGeometry>
        </mxCell>
        <mxCell id="6ZXauJgdPOwnqR5NRr7Z-22" style="edgeStyle=orthogonalEdgeStyle;rounded=0;orthogonalLoop=1;jettySize=auto;html=1;exitX=0.5;exitY=1;exitDx=0;exitDy=0;entryX=0.5;entryY=0;entryDx=0;entryDy=0;" edge="1" parent="6ZXauJgdPOwnqR5NRr7Z-35" source="6ZXauJgdPOwnqR5NRr7Z-5" target="6ZXauJgdPOwnqR5NRr7Z-2">
          <mxGeometry relative="1" as="geometry" />
        </mxCell>
        <mxCell id="6ZXauJgdPOwnqR5NRr7Z-21" style="edgeStyle=orthogonalEdgeStyle;rounded=0;orthogonalLoop=1;jettySize=auto;html=1;exitX=0.5;exitY=1;exitDx=0;exitDy=0;" edge="1" parent="6ZXauJgdPOwnqR5NRr7Z-35" source="6ZXauJgdPOwnqR5NRr7Z-5" target="6ZXauJgdPOwnqR5NRr7Z-7">
          <mxGeometry relative="1" as="geometry" />
        </mxCell>
        <mxCell id="6ZXauJgdPOwnqR5NRr7Z-20" style="edgeStyle=orthogonalEdgeStyle;rounded=0;orthogonalLoop=1;jettySize=auto;html=1;exitX=0.5;exitY=1;exitDx=0;exitDy=0;" edge="1" parent="6ZXauJgdPOwnqR5NRr7Z-35" source="6ZXauJgdPOwnqR5NRr7Z-5" target="6ZXauJgdPOwnqR5NRr7Z-10">
          <mxGeometry relative="1" as="geometry" />
        </mxCell>
        <mxCell id="6ZXauJgdPOwnqR5NRr7Z-37" value="&lt;b&gt;Common Response Header&lt;/b&gt;" style="shape=ext;double=1;rounded=0;whiteSpace=wrap;html=1;fillColor=#fff2cc;strokeColor=#d6b656;" vertex="1" parent="1">
          <mxGeometry x="-475" y="340" width="120" height="40" as="geometry" />
        </mxCell>
        <mxCell id="6ZXauJgdPOwnqR5NRr7Z-38" value="" style="group" vertex="1" connectable="0" parent="1">
          <mxGeometry x="-805" y="430" width="760" height="90" as="geometry" />
        </mxCell>
        <mxCell id="6ZXauJgdPOwnqR5NRr7Z-39" value="Set-Cookies" style="whiteSpace=wrap;html=1;fillColor=#e1d5e7;strokeColor=#9673a6;" vertex="1" parent="6ZXauJgdPOwnqR5NRr7Z-38">
          <mxGeometry y="50" width="120" height="40" as="geometry" />
        </mxCell>
        <mxCell id="6ZXauJgdPOwnqR5NRr7Z-40" style="edgeStyle=orthogonalEdgeStyle;rounded=0;orthogonalLoop=1;jettySize=auto;html=1;" edge="1" parent="6ZXauJgdPOwnqR5NRr7Z-38" target="6ZXauJgdPOwnqR5NRr7Z-43">
          <mxGeometry relative="1" as="geometry">
            <mxPoint x="390" as="sourcePoint" />
          </mxGeometry>
        </mxCell>
        <mxCell id="6ZXauJgdPOwnqR5NRr7Z-41" value="Cache-Control" style="whiteSpace=wrap;html=1;fillColor=#e1d5e7;strokeColor=#9673a6;" vertex="1" parent="6ZXauJgdPOwnqR5NRr7Z-38">
          <mxGeometry x="160" y="50" width="120" height="40" as="geometry" />
        </mxCell>
        <mxCell id="6ZXauJgdPOwnqR5NRr7Z-42" value="Content-Type" style="whiteSpace=wrap;html=1;fillColor=#e1d5e7;strokeColor=#9673a6;" vertex="1" parent="6ZXauJgdPOwnqR5NRr7Z-38">
          <mxGeometry x="320" y="50" width="120" height="40" as="geometry" />
        </mxCell>
        <mxCell id="6ZXauJgdPOwnqR5NRr7Z-43" value="Content-Encoding" style="whiteSpace=wrap;html=1;fillColor=#e1d5e7;strokeColor=#9673a6;" vertex="1" parent="6ZXauJgdPOwnqR5NRr7Z-38">
          <mxGeometry x="480" y="50" width="120" height="40" as="geometry" />
        </mxCell>
        <mxCell id="6ZXauJgdPOwnqR5NRr7Z-45" style="edgeStyle=orthogonalEdgeStyle;rounded=0;orthogonalLoop=1;jettySize=auto;html=1;" edge="1" parent="6ZXauJgdPOwnqR5NRr7Z-38" source="6ZXauJgdPOwnqR5NRr7Z-37">
          <mxGeometry relative="1" as="geometry">
            <mxPoint x="390" y="50" as="targetPoint" />
          </mxGeometry>
        </mxCell>
        <mxCell id="6ZXauJgdPOwnqR5NRr7Z-46" style="edgeStyle=orthogonalEdgeStyle;rounded=0;orthogonalLoop=1;jettySize=auto;html=1;exitX=0.5;exitY=1;exitDx=0;exitDy=0;entryX=0.5;entryY=0;entryDx=0;entryDy=0;" edge="1" parent="1" source="6ZXauJgdPOwnqR5NRr7Z-37" target="6ZXauJgdPOwnqR5NRr7Z-39">
          <mxGeometry relative="1" as="geometry" />
        </mxCell>
        <mxCell id="6ZXauJgdPOwnqR5NRr7Z-47" style="edgeStyle=orthogonalEdgeStyle;rounded=0;orthogonalLoop=1;jettySize=auto;html=1;exitX=0.5;exitY=1;exitDx=0;exitDy=0;" edge="1" parent="1" source="6ZXauJgdPOwnqR5NRr7Z-37" target="6ZXauJgdPOwnqR5NRr7Z-41">
          <mxGeometry relative="1" as="geometry" />
        </mxCell>
      </root>
    </mxGraphModel>
  </diagram>
</mxfile>
